HIERARCHY
ROOT hip
{
  OFFSET 0 0 0
  CHANNELS 6 Xposition Yposition Zposition Zrotation Yrotation Xrotation
  JOINT abdomen
  {
    OFFSET 0 20.6881 -0.73152
    CHANNELS 3 Zrotation Xrotation Yrotation
    JOINT chest
    {
      OFFSET 0 11.7043 -0.48768
      CHANNELS 3 Zrotation Xrotation Yrotation
      JOINT neck
      {
        OFFSET 0 22.1894 -2.19456
        CHANNELS 3 Zrotation Xrotation Yrotation
        JOINT head
        {
          OFFSET -0.24384 7.07133 1.2192
          CHANNELS 3 Zrotation Xrotation Yrotation
          JOINT leftEye
          {
            OFFSET 4.14528 8.04674 8.04672
            CHANNELS 3 Zrotation Xrotation Yrotation
            End Site
            {
              OFFSET 1 0 0
            }
          }
          JOINT rightEye
          {
            OFFSET -3.6576 8.04674 8.04672
            CHANNELS 3 Zrotation Xrotation Yrotation
            End Site
            {
              OFFSET 1 0 0
            }
          }
        }
      }
      JOINT rCollar
      {
        OFFSET -2.68224 19.2634 -4.8768
        CHANNELS 3 Zrotation Xrotation Yrotation
        JOINT rShldr
        {
          OFFSET -8.77824 -1.95073 1.46304
          CHANNELS 3 Zrotation Xrotation Yrotation
          JOINT rForeArm
          {
            OFFSET -28.1742 -1.7115 0.48768
            CHANNELS 3 Zrotation Xrotation Yrotation
            JOINT rHand
            {
              OFFSET -22.5879 0.773209 7.07136
              CHANNELS 3 Zrotation Xrotation Yrotation
              JOINT rThumb1
              {
                OFFSET -1.2192 -0.487915 3.41376
                CHANNELS 3 Zrotation Xrotation Yrotation
                JOINT rThumb2
                {
                  OFFSET -3.37035 -0.52449 3.41376
                  CHANNELS 3 Zrotation Xrotation Yrotation
                  End Site
                  {
                    OFFSET -1.78271 -1.18214 1.43049
                  }
                }
              }
              JOINT rIndex1
              {
                OFFSET -7.75947 0.938293 5.60832
                CHANNELS 3 Zrotation Xrotation Yrotation
                JOINT rIndex2
                {
                  OFFSET -2.54057 -0.884171 1.56538
                  CHANNELS 3 Zrotation Xrotation Yrotation
                  End Site
                  {
                    OFFSET -1.62519 -0.234802 1.16502
                  }
                }
              }
              JOINT rMid1
              {
                OFFSET -8.24714 1.18213 3.41376
                CHANNELS 3 Zrotation Xrotation Yrotation
                JOINT rMid2
                {
                  OFFSET -3.10165 -0.590103 1.0647
                  CHANNELS 3 Zrotation Xrotation Yrotation
                  End Site
                  {
                    OFFSET -2.48547 -0.328903 0.83742
                  }
                }
              }
              JOINT rRing1
              {
                OFFSET -8.82822 0.546677 1.51678
                CHANNELS 3 Zrotation Xrotation Yrotation
                JOINT rRing2
                {
                  OFFSET -2.60934 -0.819778 -0.0198488
                  CHANNELS 3 Zrotation Xrotation Yrotation
                  End Site
                  {
                    OFFSET -2.33842 -0.294052 0.168128
                  }
                }
              }
              JOINT rPinky1
              {
                OFFSET -8.27202 -0.0477905 -0.4584
                CHANNELS 3 Zrotation Xrotation Yrotation
                JOINT rPinky2
                {
                  OFFSET -1.82734 -0.647385 -0.700984
                  CHANNELS 3 Zrotation Xrotation Yrotation
                  End Site
                  {
                    OFFSET -1.69225 -0.51767 -0.607171
                  }
                }
              }
            }
          }
        }
      }
      JOINT lCollar
      {
        OFFSET 2.68224 19.2634 -4.8768
        CHANNELS 3 Zrotation Xrotation Yrotation
        JOINT lShldr
        {
          OFFSET 8.77824 -1.95073 1.46304
          CHANNELS 3 Zrotation Xrotation Yrotation
          JOINT lForeArm
          {
            OFFSET 28.1742 -1.7115 0.48768
            CHANNELS 3 Zrotation Xrotation Yrotation
            JOINT lHand
            {
              OFFSET 22.5879 0.773209 7.07136
              CHANNELS 3 Zrotation Xrotation Yrotation
              JOINT lThumb1
              {
                OFFSET 1.2192 -0.487915 3.41376
                CHANNELS 3 Zrotation Xrotation Yrotation
                JOINT lThumb2
                {
                  OFFSET 3.37035 -0.52449 3.41376
                  CHANNELS 3 Zrotation Xrotation Yrotation
                  End Site
                  {
                    OFFSET 1.78271 -1.18214 1.43049
                  }
                }
              }
              JOINT lIndex1
              {
                OFFSET 7.75947 0.938293 5.60832
                CHANNELS 3 Zrotation Xrotation Yrotation
                JOINT lIndex2
                {
                  OFFSET 2.54057 -0.884171 1.56538
                  CHANNELS 3 Zrotation Xrotation Yrotation
                  End Site
                  {
                    OFFSET 1.62519 -0.234802 1.16502
                  }
                }
              }
              JOINT lMid1
              {
                OFFSET 8.24714 1.18213 3.41376
                CHANNELS 3 Zrotation Xrotation Yrotation
                JOINT lMid2
                {
                  OFFSET 3.10165 -0.590103 1.0647
                  CHANNELS 3 Zrotation Xrotation Yrotation
                  End Site
                  {
                    OFFSET 2.48547 -0.328903 0.83742
                  }
                }
              }
              JOINT lRing1
              {
                OFFSET 8.82822 0.546677 1.51678
                CHANNELS 3 Zrotation Xrotation Yrotation
                JOINT lRing2
                {
                  OFFSET 2.60934 -0.819778 -0.0198488
                  CHANNELS 3 Zrotation Xrotation Yrotation
                  End Site
                  {
                    OFFSET 2.33842 -0.294052 0.168128
                  }
                }
              }
              JOINT lPinky1
              {
                OFFSET 8.27202 -0.0477905 -0.4584
                CHANNELS 3 Zrotation Xrotation Yrotation
                JOINT lPinky2
                {
                  OFFSET 1.82734 -0.647385 -0.700984
                  CHANNELS 3 Zrotation Xrotation Yrotation
                  End Site
                  {
                    OFFSET 1.69225 -0.51767 -0.607171
                  }
                }
              }
            }
          }
        }
      }
    }
  }
  JOINT rButtock
  {
    OFFSET -8.77824 4.35084 1.2192
    CHANNELS 3 Zrotation Xrotation Yrotation
    JOINT rThigh
    {
      OFFSET 0 -1.70687 -2.19456
      CHANNELS 3 Zrotation Xrotation Yrotation
      JOINT rShin
      {
        OFFSET 0 -36.8199 0.73152
        CHANNELS 3 Zrotation Xrotation Yrotation
        JOINT rFoot
        {
          OFFSET 0.73152 -45.1104 -5.12064
          CHANNELS 3 Zrotation Xrotation Yrotation
          End Site
          {
            OFFSET -1.1221 -3.69964 12.103
          }
        }
      }
    }
  }
  JOINT lButtock
  {
    OFFSET 8.77824 4.35084 1.2192
    CHANNELS 3 Zrotation Xrotation Yrotation
    JOINT lThigh
    {
      OFFSET 0 -1.70687 -2.19456
      CHANNELS 3 Zrotation Xrotation Yrotation
      JOINT lShin
      {
        OFFSET 0 -36.8199 0.73152
        CHANNELS 3 Zrotation Xrotation Yrotation
        JOINT lFoot
        {
          OFFSET -0.73152 -45.1104 -5.12064
          CHANNELS 3 Zrotation Xrotation Yrotation
          End Site
          {
            OFFSET 1.1221 -3.69964 12.103
          }
        }
      }
    }
  }
}
MOTION
Frames:	4
Frame Time:	0.03333
0.552675088823512 45.141625224679295 0.8307888113423605 -2.6640021800994873 6.202000141143799 5.687013626098633 -1.9336298704147339 1.7861099243164062 11.295498847961426 0.43691495060920715 -6.76231050491333 3.212049961090088 -8.649008750915527 13.140898704528809 -9.11298942565918 8.695890426635742 -13.931299209594727 -16.173500061035156 -0.0 0.0 -0.0 -0.0 0.0 -0.0 5.0888872109300376e-14 -1.0177774421860075e-13 1.8447216139621386e-13 -48.185203552246094 54.39469909667969 122.9699935913086 -28.20819854736328 -32.04389953613281 70.52269744873047 -0.0008102410356514156 0.8090649843215942 0.11371500045061111 -1.457457349252067e-10 2.4894836192501657e-10 1.09801012726507e-09 -2.516454822298897e-10 4.3054529386132856e-10 1.897766832570369e-09 -1.457457349252067e-10 2.4892291006217704e-10 1.09801012726507e-09 7.7309088706970215 5.474880218505859 0.41731396317481995 -1.457457349252067e-10 2.4892291006217704e-10 1.0980227838075507e-09 2.9055399894714355 0.9651829600334167 0.10290198773145676 -1.457457349252067e-10 2.4892291006217704e-10 1.0980227838075507e-09 10.27859878540039 0.73180091381073 0.025912299752235413 -1.457457349252067e-10 2.4892291006217704e-10 1.0980292231010935e-09 2.2216696739196777 -0.7334870100021362 -0.2089199721813202 5.0888872109300376e-14 -1.0177774421860075e-13 1.8447216139621386e-13 -114.20598602294922 56.48049545288086 55.820396423339844 28.055997848510742 -40.10809326171875 -84.1156005859375 0.06049087271094322 -7.001209259033203 0.9889310002326965 -2.432488099834984e-10 -1.8365539089515437e-09 -3.570363171778723e-10 -4.2156342305865735e-10 -3.180834484695083e-09 -6.181280487460583e-10 -2.432488099834984e-10 -1.8365539089515437e-09 -3.5702996115105634e-10 -7.7309088706970215 5.474880218505859 -0.41731396317481995 -2.432488099834984e-10 -1.8365284848442798e-09 -3.570363171778723e-10 -2.9055399894714355 0.9651829600334167 -0.10290198773145676 -2.4327426184633794e-10 -1.8365539089515437e-09 -3.570363171778723e-10 -10.27859878540039 0.73180091381073 -0.025912299752235413 -2.432488099834984e-10 -1.8365539089515437e-09 -3.570427009602639e-10 -2.2216696739196777 -0.7334870100021362 0.2089199721813202 -0.0 0.0 -0.0 9.316939353942871 -29.99739646911621 5.989139080047607 -0.4911419153213501 47.20219421386719 1.0560799837112427 -3.790189504623413 -19.717599868774414 -7.932779312133789 -0.0 0.0 -0.0 -7.3730692863464355 -29.95840072631836 -9.033209800720215 0.5041478872299194 48.985801696777344 -1.1541799306869507 7.261179447174072 -16.526599884033203 17.850099563598633
0.5645353154458957 45.15222567827116 0.827924022439077 -2.649003028869629 6.2104997634887695 5.6519880294799805 -1.9553295373916626 1.7700598239898682 11.24590015411377 0.4617219865322113 -6.744509696960449 3.1988699436187744 -8.673198699951172 13.117000579833984 -9.113869667053223 8.717968940734863 -13.839399337768555 -16.17340087890625 -0.0 0.0 -0.0 -0.0 0.0 -0.0 2.5444436054650188e-14 -1.5266661632790113e-13 2.608054831126916e-13 -48.24580001831055 54.40919494628906 122.97599029541016 -28.209497451782227 -32.05549240112305 70.54239654541016 -0.0007276118849404156 0.7685879468917847 0.10802499204874039 6.427264276354094e-11 8.340686474817005e-11 1.6950828518602634e-09 1.118282966228179e-10 1.4350662325135488e-10 2.9284701330567486e-09 6.427264276354094e-11 8.340686474817005e-11 1.6950892911538062e-09 7.7309088706970215 5.474880218505859 0.41731396317481995 6.427264276354094e-11 8.340686474817005e-11 1.6950828518602634e-09 2.9055399894714355 0.9651829600334167 0.10290198773145676 6.427264276354094e-11 8.340686474817005e-11 1.6950892911538062e-09 10.27859878540039 0.73180091381073 0.025912299752235413 6.427264276354094e-11 8.340686474817005e-11 1.695101947696287e-09 2.2216696739196777 -0.7334870100021362 -0.2089199721813202 2.5444436054650188e-14 -1.5266661632790113e-13 2.608054831126916e-13 -114.25999450683594 56.45979690551758 55.799896240234375 28.05809783935547 -40.09609603881836 -84.09410095214844 0.06068819388747215 -7.01200008392334 0.9904708862304688 -3.381565513715934e-11 -1.4038713525010849e-09 -5.211274745064998e-10 -6.068497787614646e-11 -2.4286459510136638e-09 -8.987102173563244e-10 -3.384110006110497e-11 -1.4038713525010849e-09 -5.211147624528678e-10 -7.7309088706970215 5.474880218505859 -0.41731396317481995 -3.381565513715934e-11 -1.4038713525010849e-09 -5.211274745064998e-10 -2.9055399894714355 0.9651829600334167 -0.10290198773145676 -3.384110006110497e-11 -1.4038713525010849e-09 -5.211274745064998e-10 -10.27859878540039 0.73180091381073 -0.025912299752235413 -3.381565513715934e-11 -1.4038713525010849e-09 -5.211274745064998e-10 -2.2216696739196777 -0.7334870100021362 0.2089199721813202 -0.0 0.0 -0.0 9.322810173034668 -29.941696166992188 6.036809921264648 -0.4898989200592041 47.166996002197266 1.054029941558838 -3.7714295387268066 -19.669700622558594 -7.902609348297119 -0.0 0.0 -0.0 -7.34982967376709 -29.889299392700195 -8.975629806518555 0.5023069381713867 48.92610168457031 -1.1515499353408813 7.233199596405029 -16.568302154541016 17.755998611450195
0.5721556537827212 45.15944518822386 0.8256321913164503 -2.6459977626800537 6.197699546813965 5.632972717285156 -1.9951096773147583 1.7319599390029907 11.125199317932129 0.536674976348877 -6.7044997215271 3.1681299209594727 -8.740199089050293 13.033998489379883 -9.092649459838867 8.728578567504883 -13.73289966583252 -16.12310028076172 -0.0 0.0 -0.0 -0.0 0.0 -0.0 -5.0888872109300376e-14 -1.0177774421860075e-13 2.7352767403496236e-13 -48.35619354248047 54.36960220336914 122.9909896850586 -28.211198806762695 -32.0703010559082 70.5669937133789 -0.0007188869640231133 0.7647849321365356 0.10748999565839767 6.934117724455291e-10 -3.326096620348551e-10 1.4318474184094043e-09 1.1995779924944827e-09 -5.766218058589345e-10 2.4719779556647836e-09 6.934117724455291e-10 -3.326096620348551e-10 1.4318474184094043e-09 7.7309088706970215 5.474880218505859 0.41731396317481995 6.934117724455291e-10 -3.326096620348551e-10 1.4318474184094043e-09 2.9055399894714355 0.9651829600334167 0.10290198773145676 6.934117724455291e-10 -3.326096620348551e-10 1.4318474184094043e-09 10.27859878540039 0.73180091381073 0.025912299752235413 6.934117724455291e-10 -3.326096620348551e-10 1.4318601859741875e-09 2.2216696739196777 -0.7334870100021362 -0.2089199721813202 -5.0888872109300376e-14 -1.0177774421860075e-13 2.7352767403496236e-13 -114.2179946899414 56.339698791503906 55.6443977355957 28.06149673461914 -40.076595306396484 -84.05919647216797 0.05851758271455765 -6.8859405517578125 0.9724899530410767 2.837054757787172e-10 3.8192098789080475e-11 -3.8919173439566634e-10 4.856325341862089e-10 6.933608548420622e-11 -6.652893236314128e-10 2.837054757787172e-10 3.8192098789080475e-11 -3.891790223420344e-10 -7.7309088706970215 5.474880218505859 -0.41731396317481995 2.837054757787172e-10 3.8192098789080475e-11 -3.8918537836885037e-10 -2.9055399894714355 0.9651829600334167 -0.10290198773145676 2.837054757787172e-10 3.8192098789080475e-11 -3.8918537836885037e-10 -10.27859878540039 0.73180091381073 -0.025912299752235413 2.837054757787172e-10 3.8192098789080475e-11 -3.8919173439566634e-10 -2.2216696739196777 -0.7334870100021362 0.2089199721813202 -0.0 0.0 -0.0 9.33427906036377 -29.91459846496582 6.127809524536133 -0.48858293890953064 47.14959716796875 1.052589774131775 -3.7672793865203857 -19.620798110961914 -7.899738311767578 -0.0 0.0 -0.0 -7.3481879234313965 -29.84499740600586 -8.92814826965332 0.5006428956985474 48.87489700317383 -1.1495498418807983 7.215701103210449 -16.628801345825195 17.67439842224121
0.5816094576846587 45.166377830231426 0.8216214866434126 -2.6629912853240967 6.165899753570557 5.602975368499756 -2.018979787826538 1.6952100992202759 11.051799774169922 0.5797059535980225 -6.681240081787109 3.1493396759033203 -8.77255916595459 13.035799980163574 -9.094009399414062 8.759429931640625 -13.69990062713623 -16.122299194335938 -0.0 0.0 -0.0 -0.0 0.0 -0.0 -2.5444436054650188e-14 -1.5266661632790113e-13 1.0177774421860075e-13 -48.415096282958984 54.383995056152344 122.9739990234375 -28.214099884033203 -32.09429931640625 70.6052017211914 -0.0006732079782523215 0.7413960099220276 0.10420199483633041 4.694752919753853e-10 -3.4446678842670053e-10 6.181789524717374e-10 8.127716277783748e-10 -5.964430060956261e-10 1.066357224743797e-09 4.694752919753853e-10 -3.4446678842670053e-10 6.181789524717374e-10 7.7309088706970215 5.474880218505859 0.41731396317481995 4.695007160826492e-10 -3.4446678842670053e-10 6.181789524717374e-10 2.9055399894714355 0.9651829600334167 0.10290198773145676 4.695007160826492e-10 -3.4446678842670053e-10 6.181852807429777e-10 10.27859878540039 0.73180091381073 0.025912299752235413 4.694752919753853e-10 -3.4446678842670053e-10 6.181916645253693e-10 2.2216696739196777 -0.7334870100021362 -0.2089199721813202 -2.5444436054650188e-14 -1.5266661632790113e-13 1.0177774421860075e-13 -114.20399475097656 56.2870979309082 55.5598030090332 28.064800262451172 -40.05759811401367 -84.02499389648438 0.05545409768819809 -6.706349849700928 0.9468839168548584 2.772680141038819e-10 2.03451167024582e-09 4.902124817185438e-10 4.719688528886934e-10 3.5102634132755384e-09 8.54525950000351e-10 2.772680141038819e-10 2.03451167024582e-09 4.90225249283327e-10 -7.7309088706970215 5.474880218505859 -0.41731396317481995 2.772680141038819e-10 2.03451167024582e-09 4.902188655009354e-10 -2.9055399894714355 0.9651829600334167 -0.10290198773145676 2.772680141038819e-10 2.03451167024582e-09 4.902188655009354e-10 -10.27859878540039 0.73180091381073 -0.025912299752235413 2.772680141038819e-10 2.03451167024582e-09 4.902124817185438e-10 -2.2216696739196777 -0.7334870100021362 0.2089199721813202 -0.0 0.0 -0.0 9.36642074584961 -29.879398345947266 6.218170166015625 -0.4851730167865753 47.12839889526367 1.047629952430725 -3.7775700092315674 -19.559099197387695 -7.93964958190918 -0.0 0.0 -0.0 -7.3114705085754395 -29.806900024414062 -8.847819328308105 0.49935489892959595 48.83400344848633 -1.147839903831482 7.195749759674072 -16.683399200439453 17.589998245239258
